<?xml version="1.0" encoding="UTF-8" standalone="no"?>
<svg width="118px" height="19px" viewBox="0 0 118 19" version="1.1" xmlns="http://www.w3.org/2000/svg" xmlns:xlink="http://www.w3.org/1999/xlink">
    <!-- Generator: Sketch 3.6.1 (26313) - http://www.bohemiancoding.com/sketch -->
    <title>logo</title>
    <desc>Created with Sketch.</desc>
    <defs></defs>
    <g id="Page-1" stroke="none" stroke-width="1" fill="none" fill-rule="evenodd">
        <g id="Artboard-19" transform="translate(-20.000000, -15.000000)" fill="#666666">
            <path d="M30.3882921,33.9991908 L33.2679482,33.9991908 L29.4194359,15 L23.8215997,15 L20,33.9991908 L22.8258308,33.9991908 L23.875425,28.3579745 L29.3117852,28.3579745 L30.3882921,33.9991908 Z M25.8669629,17.9603941 L27.34716,17.9603941 L28.8004444,25.8188949 L24.3867658,25.8188949 L25.8669629,17.9603941 Z M48.3121333,23.594872 C49.7115923,22.8231962 50.3844092,21.5725492 50.3844092,19.9227595 C50.3844092,17.1553704 48.419784,15 44.5174462,15 L38.5697453,15 L38.5697453,33.9991908 L44.3021449,33.9991908 C48.661998,33.9991908 50.8688373,31.5777253 50.8688373,28.4910221 C50.8688373,26.6283563 50.0614571,25.2180522 48.3121333,24.3399384 L48.3121333,23.594872 Z M44.1675815,22.8854135 L41.4494014,22.8854135 L41.4494014,17.6912674 L44.1675815,17.6912674 C46.5628095,17.6912674 47.4509277,18.6601236 47.4509277,20.3017968 C47.4509277,21.9165572 46.5628095,22.8854135 44.1675815,22.8854135 L44.1675815,22.8854135 Z M44.1675815,31.5243818 L41.4494014,31.5243818 L41.4494014,25.5766808 L44.1675815,25.5766808 C46.9126742,25.5766808 47.9353558,26.6801005 47.9353558,28.5639876 C47.9353558,30.4209621 46.9126742,31.5243818 44.1675815,31.5243818 L44.1675815,31.5243818 Z M66.7204025,15 L54.636612,15 L54.636612,17.6609511 L59.2386792,17.6609511 L59.2386792,33.9991908 L62.1183353,33.9991908 L62.1183353,17.6609511 L66.7204025,17.6609511 L66.7204025,15 Z M77.6738611,15.0068846 C72.7488418,15.0068846 70.8918673,18.9607702 70.8918673,24.50648 C70.8918673,30.0265152 72.7488418,34.0060754 77.6738611,34.0060754 C82.5988805,34.0060754 84.455855,30.0265152 84.455855,24.50648 C84.455855,18.9607702 82.5988805,15.0068846 77.6738611,15.0068846 L77.6738611,15.0068846 Z M77.6738611,31.7935085 C74.6596417,31.7935085 73.8253488,28.9945904 73.8253488,24.6078246 C73.8253488,20.2210587 74.6596417,17.4221407 77.6738611,17.4221407 C80.6880806,17.4221407 81.5223735,20.2210587 81.5223735,24.6078246 C81.5223735,28.9945904 80.6880806,31.7935085 77.6738611,31.7935085 L77.6738611,31.7935085 Z M96.4319952,25.7502424 L99.4462146,33.9991908 L102.568085,33.9991908 L98.8541358,23.9407957 L102.191307,15 L99.1770879,15 L96.4858205,22.237787 L95.0325361,22.237787 L92.3412687,15 L89.2732239,15 L92.6103955,23.9407957 L88.8964465,33.9991908 L91.9644913,33.9991908 L94.9787108,25.7502424 L96.4319952,25.7502424 Z M116.993278,33.9991908 L119.872934,33.9991908 L116.024422,15 L110.426586,15 L106.604986,33.9991908 L109.430817,33.9991908 L110.480411,28.3579745 L115.916771,28.3579745 L116.993278,33.9991908 Z M112.471949,17.9603941 L113.952146,17.9603941 L115.405431,25.8188949 L110.991752,25.8188949 L112.471949,17.9603941 Z M136.182015,17.6609511 L136.182015,15 L125.174732,15 L125.174732,33.9991908 L130.880218,33.9991908 C135.051683,33.9991908 137.419998,31.7373824 137.419998,28.1717079 C137.419998,24.579424 135.051683,22.3974441 130.880218,22.3974441 L128.054388,22.3974441 L128.054388,17.6609511 L136.182015,17.6609511 Z M130.476528,31.5243818 L128.054388,31.5243818 L128.054388,25.1729907 L130.476528,25.1729907 C133.41001,25.1729907 134.486517,26.3571484 134.486517,28.3486863 C134.486517,30.3402241 133.41001,31.5243818 130.476528,31.5243818 L130.476528,31.5243818 Z" id="АВТОХАБ"></path>
        </g>
    </g>
</svg>